{
  "asset": {
    "version": "2.0",
    "generator": "3dpea GLTFExporter"
  },
  "scenes": [
    {
      "name": "AuxScene",
      "nodes": [
        9
      ]
    }
  ],
  "scene": 0,
  "nodes": [
    {
      "name": "Object_4",
      "extras": {
        "name": "Object_4"
      },
      "mesh": 0
    },
    {
      "name": "Object_5",
      "extras": {
        "name": "Object_5"
      },
      "mesh": 1
    },
    {
      "name": "Object_6",
      "extras": {
        "name": "Object_6"
      },
      "mesh": 2
    },
    {
      "name": "Cube_2",
      "extras": {
        "name": "Cube_2"
      },
      "children": [
        0,
        1,
        2
      ]
    },
    {
      "name": "Object_8",
      "extras": {
        "name": "Object_8"
      },
      "mesh": 3
    },
    {
      "matrix": [
        0.19905070960521698,
        0,
        0,
        0,
        0,
        6.9338385895936105e-18,
        0.03122723288834095,
        0,
        0,
        -0.19905070960521698,
        4.419813617433754e-17,
        0,
        0,
        0,
        0.7815896272659302,
        1
      ],
      "name": "Cylinder_3",
      "extras": {
        "name": "Cylinder_3"
      },
      "children": [
        4
      ]
    },
    {
      "matrix": [
        1,
        0,
        0,
        0,
        0,
        2.220446049250313e-16,
        1,
        0,
        0,
        -1,
        2.220446049250313e-16,
        0,
        0,
        0,
        0,
        1
      ],
      "name": "GLTF_SceneRootNode",
      "extras": {
        "name": "GLTF_SceneRootNode"
      },
      "children": [
        3,
        5
      ]
    },
    {
      "name": "root",
      "extras": {
        "name": "root"
      },
      "children": [
        6
      ]
    },
    {
      "matrix": [
        1,
        0,
        0,
        0,
        0,
        2.220446049250313e-16,
        -1,
        0,
        0,
        1,
        2.220446049250313e-16,
        0,
        0,
        0,
        0,
        1
      ],
      "name": "Sketchfab_model",
      "extras": {
        "name": "Sketchfab_model"
      },
      "children": [
        7
      ]
    },
    {
      "name": "pokeball",
      "children": [
        8
      ]
    }
  ],
  "bufferViews": [
    {
      "buffer": 0,
      "byteOffset": 0,
      "byteLength": 271764,
      "target": 34962,
      "byteStride": 12
    },
    {
      "buffer": 0,
      "byteOffset": 271764,
      "byteLength": 271764,
      "target": 34962,
      "byteStride": 12
    },
    {
      "buffer": 0,
      "byteOffset": 543528,
      "byteLength": 181176,
      "target": 34962,
      "byteStride": 8
    },
    {
      "buffer": 0,
      "byteOffset": 724704,
      "byteLength": 435648,
      "target": 34963
    },
    {
      "buffer": 0,
      "byteOffset": 1160352,
      "byteLength": 76488,
      "target": 34962,
      "byteStride": 12
    },
    {
      "buffer": 0,
      "byteOffset": 1236840,
      "byteLength": 76488,
      "target": 34962,
      "byteStride": 12
    },
    {
      "buffer": 0,
      "byteOffset": 1313328,
      "byteLength": 50992,
      "target": 34962,
      "byteStride": 8
    },
    {
      "buffer": 0,
      "byteOffset": 1364320,
      "byteLength": 105216,
      "target": 34963
    },
    {
      "buffer": 0,
      "byteOffset": 1469536,
      "byteLength": 179760,
      "target": 34962,
      "byteStride": 12
    },
    {
      "buffer": 0,
      "byteOffset": 1649296,
      "byteLength": 179760,
      "target": 34962,
      "byteStride": 12
    },
    {
      "buffer": 0,
      "byteOffset": 1829056,
      "byteLength": 119840,
      "target": 34962,
      "byteStride": 8
    },
    {
      "buffer": 0,
      "byteOffset": 1948896,
      "byteLength": 319680,
      "target": 34963
    },
    {
      "buffer": 0,
      "byteOffset": 2268576,
      "byteLength": 97644,
      "target": 34962,
      "byteStride": 12
    },
    {
      "buffer": 0,
      "byteOffset": 2366220,
      "byteLength": 97644,
      "target": 34962,
      "byteStride": 12
    },
    {
      "buffer": 0,
      "byteOffset": 2463864,
      "byteLength": 65096,
      "target": 34962,
      "byteStride": 8
    },
    {
      "buffer": 0,
      "byteOffset": 2528960,
      "byteLength": 116736,
      "target": 34963
    }
  ],
  "buffers": [
    {
      "byteLength": 2645696,
      "uri": "data:application/octet-stream;base64,"
    }
  ],
  "accessors": [
    {
      "bufferView": 0,
      "componentType": 5126,
      "count": 22647,
      "max": [
        0.999996542930603,
        0.9971343874931335,
        0.9992284774780273
      ],
      "min": [
        -0.999996542930603,
        -1,
        -0.9999957084655762
      ],
      "type": "VEC3"
    },
    {
      "bufferView": 1,
      "componentType": 5126,
      "count": 22647,
      "max": [
        0.8499916195869446,
        0.0699964240193367,
        0.8071289658546448
      ],
      "min": [
        -0.8499916195869446,
        -0.8533223271369934,
        -0.8499264717102051
      ],
      "type": "VEC3"
    },
    {
      "bufferView": 2,
      "componentType": 5126,
      "count": 22647,
      "max": [
        0.7552085518836975,
        0.8802084922790527
      ],
      "min": [
        0.5104021430015564,
        0.369791716337204
      ],
      "type": "VEC2"
    },
    {
      "bufferView": 3,
      "componentType": 5125,
      "count": 108912,
      "max": [
        22646
      ],
      "min": [
        0
      ],
      "type": "SCALAR"
    },
    {
      "bufferView": 4,
      "componentType": 5126,
      "count": 6374,
      "max": [
        1,
        0.7700165510177612,
        1
      ],
      "min": [
        -1,
        -0.9971343874931335,
        -1
      ],
      "type": "VEC3"
    },
    {
      "bufferView": 5,
      "componentType": 5126,
      "count": 6374,
      "max": [
        0.8336122632026672,
        0.271480530500412,
        0.7947490811347961
      ],
      "min": [
        -0.8336122035980225,
        -0.2656627297401428,
        -0.8313964605331421
      ],
      "type": "VEC3"
    },
    {
      "bufferView": 6,
      "componentType": 5126,
      "count": 6374,
      "max": [
        0.5483260154724121,
        0.8773516416549683
      ],
      "min": [
        0.5,
        0.3732043206691742
      ],
      "type": "VEC2"
    },
    {
      "bufferView": 7,
      "componentType": 5125,
      "count": 26304,
      "max": [
        6373
      ],
      "min": [
        0
      ],
      "type": "SCALAR"
    },
    {
      "bufferView": 8,
      "componentType": 5126,
      "count": 14980,
      "max": [
        0.9999508857727051,
        1,
        0.9992284774780273
      ],
      "min": [
        -0.9999511241912842,
        -0.9971343874931335,
        -0.9996587038040161
      ],
      "type": "VEC3"
    },
    {
      "bufferView": 9,
      "componentType": 5126,
      "count": 14980,
      "max": [
        0.8499916195869446,
        0.853322446346283,
        0.8071289658546448
      ],
      "min": [
        -0.8499916195869446,
        0.07117398083209991,
        -0.8499264717102051
      ],
      "type": "VEC3"
    },
    {
      "bufferView": 10,
      "componentType": 5126,
      "count": 14980,
      "max": [
        0.7552085518836975,
        0.8802084922790527
      ],
      "min": [
        0.514355480670929,
        0.369791716337204
      ],
      "type": "VEC2"
    },
    {
      "bufferView": 11,
      "componentType": 5125,
      "count": 79920,
      "max": [
        14979
      ],
      "min": [
        0
      ],
      "type": "SCALAR"
    },
    {
      "bufferView": 12,
      "componentType": 5126,
      "count": 8137,
      "max": [
        0.9999891519546509,
        1,
        0.9999891519546509
      ],
      "min": [
        -0.9999891519546509,
        -1,
        -0.9999891519546509
      ],
      "type": "VEC3"
    },
    {
      "bufferView": 13,
      "componentType": 5126,
      "count": 8137,
      "max": [
        0.9920401573181152,
        1.6252774000167847,
        0.9920401573181152
      ],
      "min": [
        -0.9920401573181152,
        -0.9615840315818787,
        -0.9920401573181152
      ],
      "type": "VEC3"
    },
    {
      "bufferView": 14,
      "componentType": 5126,
      "count": 8137,
      "max": [
        1.0000001192092896,
        1.000000238418579
      ],
      "min": [
        0,
        0.010000006295740604
      ],
      "type": "VEC2"
    },
    {
      "bufferView": 15,
      "componentType": 5125,
      "count": 29184,
      "max": [
        8136
      ],
      "min": [
        0
      ],
      "type": "SCALAR"
    }
  ],
  "materials": [
    {
      "pbrMetallicRoughness": {
        "baseColorFactor": [
          0.7991027380100881,
          0.7991027380100881,
          0.7991027380100881,
          1
        ],
        "metallicFactor": 0,
        "roughnessFactor": 0.412844
      },
      "emissiveFactor": [
        1,
        1,
        1
      ],
      "doubleSided": true,
      "name": "Material.004"
    },
    {
      "pbrMetallicRoughness": {
        "baseColorFactor": [
          0.00331698,
          0.00331698,
          0.00331698,
          1
        ],
        "metallicFactor": 0,
        "roughnessFactor": 0.5
      },
      "doubleSided": true,
      "name": "Material.002"
    },
    {
      "pbrMetallicRoughness": {
        "baseColorFactor": [
          0.8,
          0,
          0.0044345,
          1
        ],
        "metallicFactor": 0,
        "roughnessFactor": 0.243119
      },
      "doubleSided": true,
      "name": "Material.003"
    },
    {
      "pbrMetallicRoughness": {
        "baseColorFactor": [
          0.8,
          0.8,
          0.8,
          1
        ],
        "metallicFactor": 0,
        "roughnessFactor": 0.412844
      },
      "emissiveFactor": [
        1,
        1,
        1
      ],
      "doubleSided": true,
      "name": "Material.001"
    }
  ],
  "meshes": [
    {
      "primitives": [
        {
          "mode": 4,
          "attributes": {
            "NORMAL": 0,
            "POSITION": 1,
            "TEXCOORD_0": 2
          },
          "indices": 3,
          "material": 0
        }
      ]
    },
    {
      "primitives": [
        {
          "mode": 4,
          "attributes": {
            "NORMAL": 4,
            "POSITION": 5,
            "TEXCOORD_0": 6
          },
          "indices": 7,
          "material": 1
        }
      ]
    },
    {
      "primitives": [
        {
          "mode": 4,
          "attributes": {
            "NORMAL": 8,
            "POSITION": 9,
            "TEXCOORD_0": 10
          },
          "indices": 11,
          "material": 2
        }
      ]
    },
    {
      "primitives": [
        {
          "mode": 4,
          "attributes": {
            "NORMAL": 12,
            "POSITION": 13,
            "TEXCOORD_0": 14
          },
          "indices": 15,
          "material": 3
        }
      ]
    }
  ]
}